<svg width="1920" height="1539.9" xmlns="http://www.w3.org/2000/svg" xmlns:xlink="http://www.w3.org/1999/xlink">
 <defs>
  <linearGradient y2="0.500218" y1="0.500218" x2="0.999986" x1="0" id="a">
   <stop stop-color="#afafb3" offset="0"/>
   <stop stop-color="#dcdde1" offset="1"/>
  </linearGradient>
  <linearGradient id="b">
   <stop stop-color="#fff" offset="0"/>
   <stop stop-opacity="0" stop-color="#dcdde1" offset="1"/>
  </linearGradient>
  <linearGradient id="e">
   <stop stop-color="#151517" offset="0"/>
   <stop stop-color="#46464b" offset="1"/>
  </linearGradient>
  <linearGradient y2="0.9375" y1="0.015634" xlink:href="#e" x2="0.494867" x1="0.494867" id="f"/>
  <linearGradient y2="1.001533" y1="0.042827" xlink:href="#e" x2="0.499113" x1="0.499113" id="g"/>
  <linearGradient y2="0.015633" y1="0.906256" xlink:href="#e" x2="0.498522" x1="0.498522" id="h"/>
  <radialGradient r="6.2189" gradientUnits="userSpaceOnUse" cy="41.2271" cx="960.1484" id="i">
   <stop stop-color="#673090" offset="0.2258"/>
   <stop stop-color="#29aae1" offset="0.8587"/>
  </radialGradient>
  <linearGradient y2="0.994285" y1="0.000171" x2="0.500063" x1="0.500063" id="j">
   <stop stop-color="#b8b8bc" offset="0"/>
   <stop stop-color="#c7c7c9" offset="0.1432"/>
   <stop stop-color="#f1f1f1" offset="0.4273"/>
   <stop stop-color="#fff" offset="0.4864"/>
   <stop stop-color="#f7f6f6" offset="0.541"/>
   <stop stop-color="#e7e6e6" offset="0.6061"/>
   <stop stop-color="#d0cfd0" offset="0.6767"/>
   <stop stop-color="#b2b2b4" offset="0.7505"/>
   <stop stop-color="#939598" offset="0.8187"/>
   <stop stop-color="#f2f2f2" offset="0.9417"/>
   <stop stop-color="#bdbec0" offset="1"/>
  </linearGradient>
  <linearGradient y2="0.500534" y1="0.500534" x2="1.000061" x1="0.000065" id="k">
   <stop stop-color="#a8aaad" offset="0"/>
   <stop stop-color="#b6b7ba" offset="0.013344"/>
   <stop stop-color="#dfdfe0" offset="0.039806"/>
   <stop stop-color="#f2f2f2" offset="0.05"/>
   <stop stop-color="#f2f2f2" offset="0.95"/>
   <stop stop-color="#a8aaad" offset="1"/>
  </linearGradient>
  <linearGradient y2="0.47796" y1="-0.033812" xlink:href="#b" x2="0.699092" x1="0.440165" id="l"/>
 </defs>
 <g>
  <title>background</title>
  <rect fill="none" id="canvas_background" height="402" width="582" y="-1" x="-1"/>
 </g>
 <g>
  <title>Layer 1</title>
  <path id="svg_1" fill-rule="evenodd" fill="url(#a)" d="m1920,1144.6l0,129.6c0,26.2 -21.3,47.5 -47.5,47.5l-1825,0c-26.2,0 -47.5,-21.3 -47.5,-47.5l0,-129.6l1920,0z" clip-rule="evenodd"/>
  <path id="svg_7" fill="#010101" d="m1920,47.5c0,-26.2 -21.3,-47.5 -47.5,-47.5l-1825,0c-26.2,0 -47.5,21.3 -47.5,47.5l0,1097.1l1920,0l0,-1097.1z"/>
  <path id="svg_8" fill="#0f0f0f" d="m1844.9,1070.5l-1769.9,0l0,-998l1769.9,0l0,998zm-1764.9,-5l1759.9,0l0,-988l-1759.9,0l0,988z"/>
  <g id="svg_9" fill-rule="evenodd" clip-rule="evenodd">
   <path id="svg_10" opacity="0.5" fill="#fff" d="m930,39.1c0.8,0 1.5,0.7 1.5,1.5s-0.7,1.5 -1.5,1.5s-1.5,-0.7 -1.5,-1.5s0.7,-1.5 1.5,-1.5z"/>
   <path id="svg_11" fill="url(#f)" d="m930,38.8c0.8,0 1.5,0.7 1.5,1.5s-0.7,1.5 -1.5,1.5s-1.5,-0.7 -1.5,-1.5s0.7,-1.5 1.5,-1.5z"/>
   <path id="svg_12" opacity="0.5" fill="#fff" d="m960,33.7c4.1,0 7.5,3.4 7.5,7.5s-3.4,7.5 -7.5,7.5s-7.5,-3.4 -7.5,-7.5s3.3,-7.5 7.5,-7.5z"/>
   <path id="svg_13" fill="url(#g)" d="m960,32.8c4.1,0 7.5,3.4 7.5,7.5s-3.4,7.5 -7.5,7.5s-7.5,-3.4 -7.5,-7.5s3.3,-7.5 7.5,-7.5z"/>
   <path id="svg_14" opacity="0.1" fill="#fff" d="m961.9,42.8c-2.9,-1.2 -0.5,4.4 -0.3,4.8c1.3,-0.3 2.5,-0.9 3.5,-1.8c-1,-1 -2,-2.5 -3.2,-3z"/>
   <path id="svg_15" fill="url(#h)" d="m960,35.8c2.5,0 4.5,2 4.5,4.5s-2,4.5 -4.5,4.5s-4.5,-2 -4.5,-4.5s2,-4.5 4.5,-4.5z"/>
   <path id="svg_16" fill="url(#i)" d="m960,37.2c1.7,0 3.1,1.4 3.1,3.1s-1.4,3.1 -3.1,3.1s-3.1,-1.4 -3.1,-3.1s1.4,-3.1 3.1,-3.1z"/>
   <path id="svg_17" opacity="0.5" fill="#fff" d="m960,37.1c0.9,0 1.6,0.4 1.6,0.8s-0.7,0.8 -1.6,0.8s-1.6,-0.4 -1.6,-0.8s0.7,-0.8 1.6,-0.8z"/>
   <path id="svg_18" opacity="0.1" fill="#fff" d="m960,42.3c0.4,0 0.7,0.2 0.7,0.3s-0.3,0.4 -0.7,0.4s-0.7,-0.2 -0.7,-0.3s0.3,-0.4 0.7,-0.4z"/>
   <path id="svg_19" fill="#f2f2f2" d="m0,1144.6l0,0.4l0,0.3l1920,0l0,-0.3l0,-0.4l-1920,0z"/>
   <path id="svg_20" fill="url(#j)" d="m1207.5,1534.3c-135.3,0 -385.9,0 -495.1,0c-43.6,0 -44,-3.5 -44,-3.5l58.9,-15.7s14.6,-4.5 20.7,-15.9c9.4,-17.6 11.9,-44.8 11.9,-44.8l9.5,-132.7l381.1,0l9.5,132.7s2.5,27.2 11.9,44.8c6.2,11.5 20.7,15.9 20.7,15.9l58.9,15.7s-0.2,3.5 -44,3.5z"/>
   <path id="svg_21" fill="url(#k)" d="m668.4,1534.9s7.3,5 44,5l495.1,0c32.6,0 44,-5.1 44,-5.1l0,-4s-0.1,3.5 -44,3.5c-135.3,0 -385.9,0 -495.1,0c-44.1,0 -44,-3.5 -44,-3.5l0,4.1z"/>
  </g>
  <path id="svg_22" opacity="0.1" fill="url(#l)" d="m1920,47.5c0,-26.2 -21.3,-47.5 -47.5,-47.5l-787.4,0l365.5,1144.6l469.4,0l0,-1097.1z"/>
 </g>
</svg>