<svg enable-background="new 0 0 1920 1539.9" viewBox="0 0 1920 1539.9" xmlns="http://www.w3.org/2000/svg" xmlns:xlink="http://www.w3.org/1999/xlink"><linearGradient id="a" gradientUnits="userSpaceOnUse" x1="0" x2="1919.9734" y1="1233.1886" y2="1233.1886"><stop offset="0" stop-color="#afafb3"/><stop offset="1" stop-color="#dcdde1"/></linearGradient><linearGradient id="b"><stop offset="0" stop-color="#fff"/><stop offset="1" stop-color="#dcdde1" stop-opacity="0"/></linearGradient><linearGradient id="c" gradientUnits="userSpaceOnUse" x1="965.4428" x2="998.0705" xlink:href="#b" y1="1185.6967" y2="1292.3055"/><linearGradient id="d" gradientUnits="userSpaceOnUse" x1="964.2636" x2="996.8912" xlink:href="#b" y1="1186.0575" y2="1292.6665"/><linearGradient id="e"><stop offset="0" stop-color="#151517"/><stop offset="1" stop-color="#46464b"/></linearGradient><linearGradient id="f" gradientUnits="userSpaceOnUse" x1="929.9846" x2="929.9846" xlink:href="#e" y1="38.8469" y2="41.6125"/><linearGradient id="g" gradientUnits="userSpaceOnUse" x1="959.9867" x2="959.9867" xlink:href="#e" y1="33.4424" y2="47.823"/><linearGradient id="h" gradientUnits="userSpaceOnUse" x1="959.9867" x2="959.9867" xlink:href="#e" y1="43.9563" y2="35.9407"/><radialGradient id="i" cx="960.1484" cy="41.2271" gradientUnits="userSpaceOnUse" r="6.2189"><stop offset=".2258" stop-color="#673090"/><stop offset=".8587" stop-color="#29aae1"/></radialGradient><linearGradient id="j" gradientUnits="userSpaceOnUse" x1="959.9867" x2="959.9867" y1="1321.7363" y2="1533.085"><stop offset="0" stop-color="#b8b8bc"/><stop offset=".1432" stop-color="#c7c7c9"/><stop offset=".4273" stop-color="#f1f1f1"/><stop offset=".4864" stop-color="#fff"/><stop offset=".541" stop-color="#f7f6f6"/><stop offset=".6061" stop-color="#e7e6e6"/><stop offset=".6767" stop-color="#d0cfd0"/><stop offset=".7505" stop-color="#b2b2b4"/><stop offset=".8187" stop-color="#939598"/><stop offset=".9417" stop-color="#f2f2f2"/><stop offset="1" stop-color="#bdbec0"/></linearGradient><linearGradient id="k" gradientUnits="userSpaceOnUse" x1="668.438" x2="1251.5354" y1="1535.3549" y2="1535.3549"><stop offset="0" stop-color="#a8aaad"/><stop offset=".0133443" stop-color="#b6b7ba"/><stop offset=".03980583" stop-color="#dfdfe0"/><stop offset=".05" stop-color="#f2f2f2"/><stop offset=".95" stop-color="#f2f2f2"/><stop offset="1" stop-color="#a8aaad"/></linearGradient><linearGradient id="l" gradientUnits="userSpaceOnUse" x1="1452.5938" x2="1668.7723" xlink:href="#b" y1="-38.7014" y2="547.0727"/><path clip-rule="evenodd" d="m1920 1144.6v129.6c0 26.2-21.3 47.5-47.5 47.5h-1825c-26.2 0-47.5-21.3-47.5-47.5v-129.6z" fill="url(#a)" fill-rule="evenodd"/><path d="m977.1 1207.5c-3.2 0-6.1.5-8.7 1.4l-1.6.6-2.2.9c-1.4.5-2.7.8-3.9.8-.9 0-2.1-.3-3.6-.9l-1.7-.7-1.6-.6c-2.3-1-4.8-1.5-7.5-1.5-7.2 0-12.9 2.4-17.2 7.2s-6.5 11.2-6.5 19.1c0 11.1 3.5 21.4 10.4 30.8 4.8 6.6 9.2 9.9 13.2 9.9 1.7 0 3.4-.3 5-1l2.1-.9 1.7-.6c2.4-.8 4.5-1.3 6.5-1.3 2.1 0 4.5.5 7.2 1.6l1.3.5c2.8 1.1 5 1.6 6.6 1.6 3.4 0 7.2-2.3 11.3-7s7.3-10.2 9.5-16.5c-8.1-4.2-12.2-10.2-12.2-18.1 0-6.6 3.3-12.2 9.9-16.8-4.5-5.6-10.5-8.5-18-8.5zm-1.1-20.7c-4.4.6-8.3 2.8-11.7 6.5s-5 7.7-5 11.9c0 .5.1 1.3.2 2.4 4.8 0 9-1.9 12.6-5.6 3.6-3.8 5.4-8.1 5.4-13.1 0-.5 0-1.3-.1-2.3-.6 0-1.1.1-1.4.2z" fill="#f2f2f2" opacity=".5"/><path d="m977.1 1205.9c-3.2 0-6.1.5-8.7 1.4l-1.6.6-2.2.9c-1.4.5-2.7.8-3.9.8-.9 0-2.1-.3-3.6-.9l-1.7-.7-1.6-.6c-2.3-1-4.8-1.5-7.5-1.5-7.2 0-12.9 2.4-17.2 7.2s-6.5 11.2-6.5 19.1c0 11.1 3.5 21.4 10.4 30.8 4.8 6.6 9.2 9.9 13.2 9.9 1.7 0 3.4-.3 5-1l2.1-.9 1.7-.6c2.4-.8 4.5-1.3 6.5-1.3 2.1 0 4.5.5 7.2 1.6l1.3.5c2.8 1.1 5 1.6 6.6 1.6 3.4 0 7.2-2.3 11.3-7s7.3-10.2 9.5-16.5c-8.1-4.2-12.2-10.2-12.2-18.1 0-6.6 3.3-12.2 9.9-16.8-4.5-5.6-10.5-8.5-18-8.5zm-1.1-20.7c-4.4.6-8.3 2.8-11.7 6.5s-5 7.7-5 11.9c0 .5.1 1.3.2 2.4 4.8 0 9-1.9 12.6-5.6 3.6-3.8 5.4-8.1 5.4-13.1 0-.5 0-1.3-.1-2.3-.6 0-1.1.1-1.4.2z" fill="#010101"/><g opacity=".2"><path d="m972.1 1200.4c3.6-3.8 5.4-8.1 5.4-13.1 0-.5 0-1.3-.1-2.3-.6.1-1.1.2-1.4.2-4.4.6-8.3 2.8-11.7 6.5s-5 7.7-5 11.9c0 .5.1 1.3.2 2.4 4.8 0 9-1.9 12.6-5.6z" fill="url(#c)"/><path d="m985.3 1231.3c0-6.6 3.3-12.2 9.9-16.8-4.6-5.7-10.6-8.6-18.1-8.6-3.2 0-6.1.5-8.7 1.4l-1.6.6-2.2.9c-1.4.5-2.7.8-3.9.8-.9 0-2.1-.3-3.6-.9l-1.7-.7-1.6-.6c-1.8-.7-3.6-1.2-5.6-1.4 6.4 12.7 13 25.2 19.8 37.6 4.9 9.1 9.8 18.1 14.7 27.2 1.7-1.2 3.5-2.8 5.3-4.9 4.1-4.7 7.3-10.2 9.5-16.5-8.1-4.2-12.2-10.2-12.2-18.1z" fill="url(#d)"/></g><path d="m1920 47.5c0-26.2-21.3-47.5-47.5-47.5h-1825c-26.2 0-47.5 21.3-47.5 47.5v1097.1h1920z" fill="#010101"/><path d="m1844.9 1070.5h-1769.9v-998h1769.9zm-1764.9-5h1759.9v-988h-1759.9z" fill="#0f0f0f"/><g clip-rule="evenodd" fill-rule="evenodd"><path d="m930 39.1c.8 0 1.5.7 1.5 1.5s-.7 1.5-1.5 1.5-1.5-.7-1.5-1.5.7-1.5 1.5-1.5z" fill="#fff" opacity=".5"/><path d="m930 38.8c.8 0 1.5.7 1.5 1.5s-.7 1.5-1.5 1.5-1.5-.7-1.5-1.5.7-1.5 1.5-1.5z" fill="url(#f)"/><path d="m960 33.7c4.1 0 7.5 3.4 7.5 7.5s-3.4 7.5-7.5 7.5-7.5-3.4-7.5-7.5 3.3-7.5 7.5-7.5z" fill="#fff" opacity=".5"/><path d="m960 32.8c4.1 0 7.5 3.4 7.5 7.5s-3.4 7.5-7.5 7.5-7.5-3.4-7.5-7.5 3.3-7.5 7.5-7.5z" fill="url(#g)"/><path d="m961.9 42.8c-2.9-1.2-.5 4.4-.3 4.8 1.3-.3 2.5-.9 3.5-1.8-1-1-2-2.5-3.2-3z" fill="#fff" opacity=".1"/><path d="m960 35.8c2.5 0 4.5 2 4.5 4.5s-2 4.5-4.5 4.5-4.5-2-4.5-4.5 2-4.5 4.5-4.5z" fill="url(#h)"/><path d="m960 37.2c1.7 0 3.1 1.4 3.1 3.1s-1.4 3.1-3.1 3.1-3.1-1.4-3.1-3.1 1.4-3.1 3.1-3.1z" fill="url(#i)"/><path d="m960 37.1c.9 0 1.6.4 1.6.8s-.7.8-1.6.8-1.6-.4-1.6-.8.7-.8 1.6-.8z" fill="#fff" opacity=".5"/><path d="m960 42.3c.4 0 .7.2.7.3s-.3.4-.7.4-.7-.2-.7-.3.3-.4.7-.4z" fill="#fff" opacity=".1"/><path d="m0 1144.6v.4.3h1920v-.3-.4z" fill="#f2f2f2"/><path d="m1207.5 1534.3c-135.3 0-385.9 0-495.1 0-43.6 0-44-3.5-44-3.5l58.9-15.7s14.6-4.5 20.7-15.9c9.4-17.6 11.9-44.8 11.9-44.8l9.5-132.7h381.1l9.5 132.7s2.5 27.2 11.9 44.8c6.2 11.5 20.7 15.9 20.7 15.9l58.9 15.7s-.2 3.5-44 3.5z" fill="url(#j)"/><path d="m668.4 1534.9s7.3 5 44 5h495.1c32.6 0 44-5.1 44-5.1v-4s-.1 3.5-44 3.5c-135.3 0-385.9 0-495.1 0-44.1 0-44-3.5-44-3.5z" fill="url(#k)"/></g><path d="m1920 47.5c0-26.2-21.3-47.5-47.5-47.5h-787.4l365.5 1144.6h469.4z" fill="url(#l)" opacity=".1"/></svg>